<mxfile host="app.diagrams.net" agent="Mozilla/5.0 (Windows NT 10.0; Win64; x64; rv:128.0) Gecko/20100101 Firefox/128.0" version="24.7.6">
  <diagram name="Seite-1" id="Alotk9Q2dPav7pNGP3Qy">
    <mxGraphModel dx="2415" dy="1277" grid="1" gridSize="10" guides="1" tooltips="1" connect="1" arrows="1" fold="1" page="1" pageScale="1" pageWidth="827" pageHeight="1169" math="0" shadow="0">
      <root>
        <mxCell id="0" />
        <mxCell id="1" parent="0" />
        <mxCell id="aEIhyESOMuXxNe6kChHx-13" style="edgeStyle=orthogonalEdgeStyle;rounded=0;orthogonalLoop=1;jettySize=auto;html=1;exitX=0.5;exitY=1;exitDx=0;exitDy=0;entryX=0.25;entryY=0;entryDx=0;entryDy=0;" edge="1" parent="1" source="aEIhyESOMuXxNe6kChHx-1" target="aEIhyESOMuXxNe6kChHx-3">
          <mxGeometry relative="1" as="geometry" />
        </mxCell>
        <mxCell id="aEIhyESOMuXxNe6kChHx-1" value="Geocoded&lt;br&gt;Dataset" style="shape=parallelogram;perimeter=parallelogramPerimeter;whiteSpace=wrap;html=1;fixedSize=1;rounded=1;" vertex="1" parent="1">
          <mxGeometry x="160" y="100" width="120" height="60" as="geometry" />
        </mxCell>
        <mxCell id="aEIhyESOMuXxNe6kChHx-14" style="edgeStyle=orthogonalEdgeStyle;rounded=0;orthogonalLoop=1;jettySize=auto;html=1;exitX=0.5;exitY=1;exitDx=0;exitDy=0;entryX=0.75;entryY=0;entryDx=0;entryDy=0;" edge="1" parent="1" source="aEIhyESOMuXxNe6kChHx-2" target="aEIhyESOMuXxNe6kChHx-3">
          <mxGeometry relative="1" as="geometry" />
        </mxCell>
        <mxCell id="aEIhyESOMuXxNe6kChHx-2" value="Geospatial&lt;br&gt;Dataset" style="shape=parallelogram;perimeter=parallelogramPerimeter;whiteSpace=wrap;html=1;fixedSize=1;rounded=1;" vertex="1" parent="1">
          <mxGeometry x="560" y="100" width="120" height="60" as="geometry" />
        </mxCell>
        <mxCell id="aEIhyESOMuXxNe6kChHx-3" value="Linkage" style="rounded=0;whiteSpace=wrap;html=1;" vertex="1" parent="1">
          <mxGeometry x="80" y="240" width="680" height="60" as="geometry" />
        </mxCell>
        <mxCell id="aEIhyESOMuXxNe6kChHx-4" value="Circle" style="swimlane;whiteSpace=wrap;html=1;" vertex="1" parent="1">
          <mxGeometry x="220" y="370" width="120" height="200" as="geometry" />
        </mxCell>
        <mxCell id="aEIhyESOMuXxNe6kChHx-11" value="&lt;b&gt;Radius &lt;/b&gt;[m]" style="text;html=1;align=center;verticalAlign=middle;resizable=0;points=[];autosize=1;strokeColor=none;fillColor=none;" vertex="1" parent="aEIhyESOMuXxNe6kChHx-4">
          <mxGeometry x="10" y="30" width="80" height="30" as="geometry" />
        </mxCell>
        <mxCell id="aEIhyESOMuXxNe6kChHx-5" value="Point" style="swimlane;whiteSpace=wrap;html=1;" vertex="1" parent="1">
          <mxGeometry x="80" y="370" width="120" height="200" as="geometry" />
        </mxCell>
        <mxCell id="aEIhyESOMuXxNe6kChHx-6" value="Square" style="swimlane;whiteSpace=wrap;html=1;" vertex="1" parent="1">
          <mxGeometry x="360" y="370" width="120" height="200" as="geometry" />
        </mxCell>
        <mxCell id="aEIhyESOMuXxNe6kChHx-12" value="&lt;b&gt;Size &lt;/b&gt;[m]" style="text;html=1;align=center;verticalAlign=middle;resizable=0;points=[];autosize=1;strokeColor=none;fillColor=none;" vertex="1" parent="aEIhyESOMuXxNe6kChHx-6">
          <mxGeometry x="10" y="30" width="70" height="30" as="geometry" />
        </mxCell>
        <mxCell id="aEIhyESOMuXxNe6kChHx-7" value="Isochrone" style="swimlane;whiteSpace=wrap;html=1;startSize=23;" vertex="1" parent="1">
          <mxGeometry x="500" y="370" width="134" height="200" as="geometry" />
        </mxCell>
        <mxCell id="aEIhyESOMuXxNe6kChHx-15" value="&lt;div&gt;&lt;b&gt;Transport Mode&lt;/b&gt;&lt;/div&gt;&lt;div&gt;&lt;br&gt;&lt;/div&gt;&lt;div&gt;&lt;b&gt;Routing Type&lt;/b&gt;&lt;/div&gt;&lt;div&gt;(time / distance)&lt;/div&gt;&lt;div&gt;&lt;br&gt;&lt;/div&gt;&lt;div&gt;&lt;b&gt;Intervall &lt;/b&gt;[m oder min]&lt;br&gt;&lt;/div&gt;" style="text;html=1;align=center;verticalAlign=middle;resizable=0;points=[];autosize=1;strokeColor=none;fillColor=none;" vertex="1" parent="aEIhyESOMuXxNe6kChHx-7">
          <mxGeometry x="-6" y="30" width="140" height="100" as="geometry" />
        </mxCell>
        <mxCell id="aEIhyESOMuXxNe6kChHx-8" value="Nearest POI" style="swimlane;whiteSpace=wrap;html=1;" vertex="1" parent="1">
          <mxGeometry x="640" y="370" width="120" height="200" as="geometry" />
        </mxCell>
        <mxCell id="aEIhyESOMuXxNe6kChHx-9" value="Neighbourhood" style="rounded=0;whiteSpace=wrap;html=1;fillColor=#fff2cc;strokeColor=#d6b656;" vertex="1" parent="1">
          <mxGeometry x="220" y="310" width="400" height="20" as="geometry" />
        </mxCell>
        <mxCell id="aEIhyESOMuXxNe6kChHx-10" value="Routing" style="rounded=0;whiteSpace=wrap;html=1;fillColor=#fff2cc;strokeColor=#d6b656;" vertex="1" parent="1">
          <mxGeometry x="500" y="340" width="260" height="20" as="geometry" />
        </mxCell>
      </root>
    </mxGraphModel>
  </diagram>
</mxfile>
